<mxfile host="65bd71144e">
    <diagram id="oSYODWOv5Z2Tl-M0ZJY_" name="Page-1">
        <mxGraphModel dx="9383" dy="2917" grid="1" gridSize="10" guides="1" tooltips="1" connect="1" arrows="1" fold="1" page="1" pageScale="1" pageWidth="850" pageHeight="1100" math="0" shadow="0">
            <root>
                <mxCell id="0"/>
                <mxCell id="1" parent="0"/>
                <mxCell id="135" value="express API" style="rounded=0;whiteSpace=wrap;html=1;" vertex="1" parent="1">
                    <mxGeometry x="-7170" y="-580" width="120" height="60" as="geometry"/>
                </mxCell>
                <mxCell id="136" style="edgeStyle=none;html=1;exitX=0.5;exitY=0;exitDx=0;exitDy=0;entryX=0.5;entryY=1;entryDx=0;entryDy=0;" edge="1" parent="1" source="137" target="135">
                    <mxGeometry relative="1" as="geometry"/>
                </mxCell>
                <mxCell id="137" value="react app" style="rounded=0;whiteSpace=wrap;html=1;" vertex="1" parent="1">
                    <mxGeometry x="-7170" y="-420" width="120" height="60" as="geometry"/>
                </mxCell>
                <mxCell id="138" value="" style="whiteSpace=wrap;html=1;" vertex="1" parent="1">
                    <mxGeometry x="-6950" y="-635" width="360" height="170" as="geometry"/>
                </mxCell>
                <mxCell id="139" style="edgeStyle=none;html=1;exitX=1;exitY=0.5;exitDx=0;exitDy=0;entryX=0.5;entryY=1;entryDx=0;entryDy=0;" edge="1" parent="1" source="140" target="149">
                    <mxGeometry relative="1" as="geometry">
                        <Array as="points">
                            <mxPoint x="-6490" y="-550"/>
                        </Array>
                    </mxGeometry>
                </mxCell>
                <mxCell id="140" value="mongoDB" style="whiteSpace=wrap;html=1;" vertex="1" parent="1">
                    <mxGeometry x="-6750" y="-580" width="120" height="60" as="geometry"/>
                </mxCell>
                <mxCell id="141" value="prisma" style="whiteSpace=wrap;html=1;" vertex="1" parent="1">
                    <mxGeometry x="-6920" y="-580" width="120" height="60" as="geometry"/>
                </mxCell>
                <mxCell id="142" value="" style="endArrow=classic;startArrow=classic;html=1;exitX=1;exitY=0.5;exitDx=0;exitDy=0;entryX=0;entryY=0.5;entryDx=0;entryDy=0;" edge="1" parent="1" source="135" target="141">
                    <mxGeometry width="50" height="50" relative="1" as="geometry">
                        <mxPoint x="-6980" y="-550" as="sourcePoint"/>
                        <mxPoint x="-6850" y="-610" as="targetPoint"/>
                    </mxGeometry>
                </mxCell>
                <mxCell id="143" value="" style="endArrow=classic;startArrow=classic;html=1;exitX=0;exitY=0.5;exitDx=0;exitDy=0;entryX=1;entryY=0.5;entryDx=0;entryDy=0;" edge="1" parent="1" source="140" target="141">
                    <mxGeometry width="50" height="50" relative="1" as="geometry">
                        <mxPoint x="-6890" y="-550" as="sourcePoint"/>
                        <mxPoint x="-6840" y="-600" as="targetPoint"/>
                    </mxGeometry>
                </mxCell>
                <mxCell id="157" value="" style="rounded=1;whiteSpace=wrap;html=1;" vertex="1" parent="1">
                    <mxGeometry x="-6820" y="-1420" width="790" height="710" as="geometry"/>
                </mxCell>
                <mxCell id="144" value="user&lt;br&gt;&amp;nbsp;&lt;br&gt;id - string -primary&amp;nbsp;&lt;br&gt;usernam -string&lt;br&gt;email - string&amp;nbsp;&lt;br&gt;createdAt -Date" style="whiteSpace=wrap;html=1;" vertex="1" parent="1">
                    <mxGeometry x="-6760" y="-1190" width="110" height="90" as="geometry"/>
                </mxCell>
                <mxCell id="145" style="edgeStyle=none;html=1;exitX=0.5;exitY=1;exitDx=0;exitDy=0;entryX=0.405;entryY=0.012;entryDx=0;entryDy=0;entryPerimeter=0;" edge="1" parent="1" source="146" target="149">
                    <mxGeometry relative="1" as="geometry"/>
                </mxCell>
                <mxCell id="146" value="post&lt;br&gt;&lt;br&gt;id - string -primary&lt;br&gt;userID : string&lt;br&gt;title - string&amp;nbsp;&lt;br&gt;price - int&lt;br&gt;images - String[]&lt;br&gt;address - String&lt;br&gt;city - String&amp;nbsp;&lt;br&gt;bedroom - String&amp;nbsp;&lt;br&gt;bathroom - String&amp;nbsp;&lt;br&gt;latitude - String&amp;nbsp;&lt;br&gt;longtitude - String&amp;nbsp;&lt;br&gt;type - String&amp;nbsp;&lt;br&gt;property - string&amp;nbsp;&lt;br&gt;createdAt - String" style="whiteSpace=wrap;html=1;" vertex="1" parent="1">
                    <mxGeometry x="-6560" y="-1210" width="120" height="240" as="geometry"/>
                </mxCell>
                <mxCell id="147" style="edgeStyle=none;html=1;exitX=0;exitY=0.25;exitDx=0;exitDy=0;" edge="1" parent="1" source="148">
                    <mxGeometry relative="1" as="geometry">
                        <mxPoint x="-6390" y="-1170" as="targetPoint"/>
                        <Array as="points"/>
                    </mxGeometry>
                </mxCell>
                <mxCell id="148" value="postDetails&lt;br&gt;&lt;br&gt;id : String&amp;nbsp; - primary key&lt;br&gt;postId : String&lt;br&gt;desc : String&lt;br&gt;utilities : String&amp;nbsp;&lt;br&gt;pet : String&amp;nbsp;&lt;br&gt;income : String&lt;br&gt;size : int&lt;br&gt;school : int&lt;br&gt;bus : int&lt;br&gt;restro : int" style="whiteSpace=wrap;html=1;" vertex="1" parent="1">
                    <mxGeometry x="-6320" y="-1220" width="150" height="200" as="geometry"/>
                </mxCell>
                <mxCell id="149" value="Chat&lt;br&gt;&lt;br&gt;id : string - primary&lt;br&gt;userIds : String[]&lt;br&gt;seenBy : String[]&lt;br&gt;lastMessage : String&lt;br&gt;createdAt : Date" style="whiteSpace=wrap;html=1;" vertex="1" parent="1">
                    <mxGeometry x="-6550" y="-900" width="129" height="150" as="geometry"/>
                </mxCell>
                <mxCell id="150" style="edgeStyle=none;html=1;exitX=0;exitY=0.5;exitDx=0;exitDy=0;entryX=0;entryY=0.5;entryDx=0;entryDy=0;" edge="1" parent="1" source="149" target="153">
                    <mxGeometry relative="1" as="geometry">
                        <mxPoint x="-6640" y="-887.3555131392045" as="targetPoint"/>
                        <Array as="points">
                            <mxPoint x="-6610" y="-825"/>
                            <mxPoint x="-6610" y="-920"/>
                            <mxPoint x="-6610" y="-1060"/>
                            <mxPoint x="-6610" y="-1180"/>
                            <mxPoint x="-6610" y="-1305"/>
                        </Array>
                    </mxGeometry>
                </mxCell>
                <mxCell id="151" value="message&amp;nbsp;&lt;br&gt;&lt;br&gt;id : String - primary key&lt;br&gt;userId : String&lt;br&gt;chatId : String&lt;br&gt;text : String&lt;br&gt;createdAt : Date" style="whiteSpace=wrap;html=1;" vertex="1" parent="1">
                    <mxGeometry x="-6330" y="-880" width="150" height="130" as="geometry"/>
                </mxCell>
                <mxCell id="152" style="edgeStyle=none;html=1;exitX=0;exitY=0.75;exitDx=0;exitDy=0;entryX=1.011;entryY=0.158;entryDx=0;entryDy=0;entryPerimeter=0;" edge="1" parent="1" source="153" target="146">
                    <mxGeometry relative="1" as="geometry">
                        <Array as="points">
                            <mxPoint x="-6390" y="-1170"/>
                        </Array>
                    </mxGeometry>
                </mxCell>
                <mxCell id="153" value="saved post&lt;br&gt;&lt;br&gt;id : String - primary key&lt;br&gt;userId : String&amp;nbsp;&lt;br&gt;postId : String&lt;br&gt;&amp;nbsp;createdAt : Date" style="whiteSpace=wrap;html=1;" vertex="1" parent="1">
                    <mxGeometry x="-6340" y="-1360" width="219" height="110" as="geometry"/>
                </mxCell>
                <mxCell id="154" value="" style="edgeStyle=none;orthogonalLoop=1;jettySize=auto;html=1;" edge="1" parent="1" source="149">
                    <mxGeometry width="80" relative="1" as="geometry">
                        <mxPoint x="-6265" y="-1100" as="sourcePoint"/>
                        <mxPoint x="-6330" y="-825" as="targetPoint"/>
                        <Array as="points"/>
                    </mxGeometry>
                </mxCell>
                <mxCell id="155" value="" style="edgeStyle=none;orthogonalLoop=1;jettySize=auto;html=1;exitX=1.011;exitY=0.42;exitDx=0;exitDy=0;exitPerimeter=0;entryX=0;entryY=0.25;entryDx=0;entryDy=0;" edge="1" parent="1" source="144" target="146">
                    <mxGeometry width="100" relative="1" as="geometry">
                        <mxPoint x="-6610" y="-1280" as="sourcePoint"/>
                        <mxPoint x="-6510" y="-1280" as="targetPoint"/>
                        <Array as="points"/>
                    </mxGeometry>
                </mxCell>
            </root>
        </mxGraphModel>
    </diagram>
</mxfile>